<?xml version="1.0" encoding="utf-8"?>
<!-- Generator: Adobe Illustrator 21.0.2, SVG Export Plug-In . SVG Version: 6.00 Build 0)  -->
<svg version="1.1" id="Layer_1" xmlns="http://www.w3.org/2000/svg" xmlns:xlink="http://www.w3.org/1999/xlink" x="0px" y="0px"
	 width="300px" height="300px" viewBox="0 0 300 300" style="enable-background:new 0 0 300 300;" xml:space="preserve">
<style type="text/css">
	.st0{fill:none;stroke:#D1D3D4;stroke-width:1.2825;stroke-miterlimit:10;}
	.st1{fill:#D1D3D4;}
	.st2{fill:#414042;stroke:#282829;stroke-width:2.5914;stroke-miterlimit:10;}
	.st3{fill:#8DC63F;}
	.st4{fill:none;stroke:#282829;stroke-width:2.5908;stroke-miterlimit:10;}
	.st5{fill:#F1F2F2;stroke:#282829;stroke-width:2.5908;stroke-miterlimit:10;}
	.st6{fill:#D1D3D4;stroke:#282829;stroke-width:1.8085;stroke-miterlimit:10;}
	.st7{fill:#FFFFFF;stroke:#282829;stroke-width:2.5651;stroke-miterlimit:10;}
</style>
<g>
	<path class="st0" d="M277.4,122.1v-4.9l-4.4-0.6c-0.3-1.2-0.6-2.3-1.2-3.3l3.1-3.3l-3.2-3.8l-3.8,2.4c-0.9-0.7-1.9-1.3-3-1.8
		l0.2-4.6l-4.9-0.9l-1.3,4.4c-1.2,0.1-2.3,0.2-3.4,0.6l-2.8-3.7l-4.3,2.5l1.8,4.3c-0.8,0.8-1.6,1.6-2.2,2.6l-4.6-1l-1.7,4.6l4.1,2.1
		c-0.1,0.6-0.1,1.2-0.1,1.9c0,0.5,0,1,0.1,1.5l-4.2,2.1l1.7,4.6l4.5-1c0.6,1,1.3,1.8,2.1,2.6l-1.8,4.3l4.3,2.5l2.7-3.6
		c1.1,0.4,2.2,0.6,3.4,0.7l1.4,4.4l4.9-0.9l-0.2-4.5c1.1-0.4,2.1-1,3.1-1.7l3.8,2.5l3.2-3.8l-3-3.3c0.6-1,1-2.1,1.2-3.3L277.4,122.1
		z M259.6,128.9c-5.2,0-9.4-4.2-9.4-9.4s4.2-9.4,9.4-9.4s9.4,4.2,9.4,9.4S264.8,128.9,259.6,128.9z"/>
	<path class="st1" d="M125.5,151.3v-13.8l-12.3-1.5c-0.7-3.3-1.8-6.3-3.3-9.2l8.6-9.2l-8.9-10.6l-10.5,6.8c-2.5-2-5.3-3.6-8.3-4.9
		l0.6-12.8l-13.6-2.4l-3.7,12.2c-3.2,0.1-6.4,0.7-9.4,1.6L57,97.1L45.1,104l5,11.9c-2.3,2.1-4.3,4.5-6.1,7.1L31.2,120L26.5,133
		l11.5,5.9c-0.2,1.7-0.3,3.4-0.3,5.2c0,1.4,0.1,2.8,0.2,4.2l-11.7,6l4.7,12.9l12.5-2.9c1.7,2.7,3.7,5.1,5.9,7.3l-5,12l11.9,6.9
		l7.6-10.1c3,1,6.2,1.6,9.4,1.8l3.8,12.2l13.6-2.4l-0.6-12.5c3.1-1.2,5.9-2.8,8.5-4.7l10.6,6.8l8.9-10.6l-8.4-9.1
		c1.5-2.9,2.7-6,3.5-9.2L125.5,151.3z M75.9,170.3c-14.5,0-26.2-11.7-26.2-26.2s11.7-26.2,26.2-26.2s26.2,11.7,26.2,26.2
		S90.4,170.3,75.9,170.3z"/>
	<path class="st0" d="M47.4,200v-3.4l-3.1-0.4c-0.2-0.8-0.5-1.6-0.8-2.3l2.1-2.3l-2.2-2.6l-2.6,1.7c-0.6-0.5-1.3-0.9-2.1-1.2
		l0.2-3.2l-3.4-0.6l-0.9,3c-0.8,0-1.6,0.2-2.3,0.4l-2-2.6l-3,1.7l1.2,3c-0.6,0.5-1.1,1.1-1.5,1.8l-3.2-0.7l-1.2,3.2l2.9,1.5
		c-0.1,0.4-0.1,0.9-0.1,1.3c0,0.4,0,0.7,0.1,1l-2.9,1.5l1.2,3.2l3.1-0.7c0.4,0.7,0.9,1.3,1.5,1.8l-1.3,3l3,1.7l1.9-2.5
		c0.7,0.2,1.5,0.4,2.3,0.5l0.9,3l3.4-0.6l-0.2-3.1c0.8-0.3,1.5-0.7,2.1-1.2l2.6,1.7l2.2-2.6l-2.1-2.3c0.4-0.7,0.7-1.5,0.9-2.3
		L47.4,200z M35,202.9c-2.6,0-4.7-2.1-4.7-4.7c0-2.6,2.1-4.7,4.7-4.7s4.7,2.1,4.7,4.7C39.7,200.8,37.6,202.9,35,202.9z"/>
	<g>
		<path class="st2" d="M257.4,218.9h-196V100.1c0-2.9,2.3-5.2,5.2-5.2h185.6c2.9,0,5.2,2.3,5.2,5.2V218.9z"/>
		<rect x="69.5" y="101.2" class="st3" width="179.8" height="107.7"/>
		<rect x="69.5" y="101.2" class="st4" width="179.8" height="107.7"/>
		<path class="st5" d="M190.3,214.3c-0.4,1.4-1.7,2.5-3.3,2.5h-55.1c-1.6,0-2.9-1.1-3.3-2.5H43.2v4.2h0v2.6c0,4,3.2,7.2,7.2,7.2h218
			c4,0,7.2-3.2,7.2-7.2v0v-2.6v-4.2H190.3z"/>
	</g>
	<path class="st6" d="M221.6,116.3l-0.7-11.3l-10.2-0.6c-0.7-2.6-1.8-5.1-3.2-7.4l6.5-8l-7.8-8.2l-8.3,6.1c-2.2-1.5-4.6-2.7-7.1-3.6
		l-0.2-10.5l-11.3-1.2L177,81.9c-2.6,0.3-5.2,0.9-7.6,1.8l-7-8.1l-9.4,6.3l4.7,9.5c-1.8,1.9-3.3,3.9-4.6,6.2l-10.6-1.7l-3.2,10.9
		l9.7,4.2c-0.1,1.4-0.1,2.8,0,4.3c0.1,1.2,0.2,2.3,0.4,3.4l-9.2,5.5l4.6,10.4l10.1-3c1.5,2.1,3.3,4,5.3,5.7l-3.5,10.1l10.2,5
		l5.7-8.7c2.5,0.6,5.1,1,7.8,1l3.7,9.8l11-2.7l-1.2-10.2c2.4-1.2,4.7-2.6,6.7-4.4l9.1,5l6.7-9.1l-7.4-7c1.1-2.4,1.9-5,2.4-7.7
		L221.6,116.3z M181.5,128.2c-8.4,0.6-15.6-5.8-16.2-14.2s5.8-15.6,14.2-16.2c8.4-0.6,15.6,5.8,16.2,14.2S189.8,127.7,181.5,128.2z"
		/>
	<path class="st7" d="M240,172.9v-7.3l-6.5-0.8c-0.4-1.7-1-3.3-1.7-4.9l4.5-4.9l-4.7-5.6l-5.5,3.6c-1.3-1-2.8-1.9-4.4-2.6l0.3-6.7
		l-7.1-1.3l-2,6.4c-1.7,0.1-3.4,0.4-4.9,0.8l-4.1-5.4l-6.3,3.6l2.6,6.2c-1.2,1.1-2.3,2.4-3.2,3.7l-6.7-1.5l-2.5,6.8l6.1,3.1
		c-0.1,0.9-0.2,1.8-0.2,2.7c0,0.7,0,1.5,0.1,2.2l-6.1,3.1l2.5,6.8l6.6-1.5c0.9,1.4,1.9,2.7,3.1,3.9l-2.7,6.3l6.3,3.6l4-5.3
		c1.6,0.5,3.2,0.8,5,1l2,6.4l7.1-1.3l-0.3-6.6c1.6-0.6,3.1-1.5,4.5-2.5l5.6,3.6l4.7-5.6l-4.4-4.8c0.8-1.5,1.4-3.1,1.8-4.8L240,172.9
		z M213.9,179.1c-5.5,0-10-4.5-10-10c0-5.5,4.5-10,10-10s10,4.5,10,10C223.9,174.6,219.4,179.1,213.9,179.1z"/>
	<path class="st7" d="M162.9,170.8v-11.3l-10.1-1.3c-0.6-2.7-1.5-5.2-2.7-7.6l7.1-7.6l-7.3-8.7l-8.6,5.6c-2.1-1.6-4.4-3-6.8-4
		l0.5-10.5l-11.1-2l-3.1,10c-2.7,0.1-5.2,0.6-7.7,1.3l-6.4-8.5l-9.8,5.7l4.1,9.7c-1.9,1.7-3.6,3.7-5,5.8l-10.5-2.4l-3.9,10.6
		l9.4,4.8c-0.2,1.4-0.3,2.8-0.3,4.2c0,1.2,0.1,2.3,0.2,3.4l-9.6,4.9l3.9,10.6l10.3-2.3c1.4,2.2,3,4.2,4.9,6l-4.1,9.8l9.8,5.7
		l6.3-8.3c2.5,0.8,5.1,1.3,7.7,1.5l3.1,10l11.1-2l-0.5-10.2c2.5-1,4.9-2.3,7-3.9l8.7,5.6l7.3-8.7l-6.9-7.4c1.3-2.4,2.2-4.9,2.9-7.6
		L162.9,170.8z M122.1,186.4c-11.9,0-21.5-9.6-21.5-21.5c0-11.9,9.6-21.5,21.5-21.5s21.5,9.6,21.5,21.5
		C143.6,176.7,134,186.4,122.1,186.4z"/>
</g>
</svg>
