<?xml version="1.0" encoding="utf-8"?>
<!-- Generator: Adobe Illustrator 21.0.2, SVG Export Plug-In . SVG Version: 6.00 Build 0)  -->
<svg version="1.1" id="Layer_1" xmlns="http://www.w3.org/2000/svg" xmlns:xlink="http://www.w3.org/1999/xlink" x="0px" y="0px"
	 width="300px" height="300px" viewBox="0 0 300 300" style="enable-background:new 0 0 300 300;" xml:space="preserve">
<style type="text/css">
	.st0{fill:none;stroke:#D1D3D4;stroke-width:1.2825;stroke-miterlimit:10;}
	.st1{fill:#D1D3D4;}
	.st2{fill:#414042;stroke:#282829;stroke-width:2.5914;stroke-miterlimit:10;}
	.st3{fill:#8DC63F;}
	.st4{fill:none;stroke:#282829;stroke-width:2.5908;stroke-miterlimit:10;}
	.st5{fill:#F1F2F2;stroke:#282829;stroke-width:2.5908;stroke-miterlimit:10;}
	.st6{fill:none;stroke:#282829;stroke-width:2.5651;stroke-miterlimit:10;}
	.st7{fill:#FFFFFF;stroke:#282829;stroke-width:2.083;stroke-miterlimit:10;}
</style>
<g>
	<g>
		<g>
			<g>
				<line class="st0" x1="165.7" y1="99.2" x2="192.3" y2="72.6"/>
				<g>
					<polygon class="st1" points="192.8,77.3 191.9,77.3 192.1,72.9 187.6,73.1 187.6,72.2 193,72 					"/>
				</g>
			</g>
		</g>
		<g>
			<g>
				<line class="st0" x1="211.2" y1="80.1" x2="232.5" y2="58.8"/>
				<g>
					<polygon class="st1" points="233,63.5 232.1,63.5 232.3,59 227.8,59.2 227.8,58.3 233.2,58.1 					"/>
				</g>
			</g>
		</g>
		<g>
			<g>
				<line class="st0" x1="181.2" y1="108.5" x2="202.5" y2="87.2"/>
				<g>
					<polygon class="st1" points="203,91.9 202.1,91.8 202.3,87.4 197.8,87.6 197.8,86.7 203.2,86.5 					"/>
				</g>
			</g>
		</g>
		<g>
			<g>
				<line class="st0" x1="171.7" y1="136.9" x2="192.9" y2="115.6"/>
				<g>
					<polygon class="st1" points="193.4,120.3 192.5,120.3 192.7,115.9 188.3,116 188.2,115.1 193.6,114.9 					"/>
				</g>
			</g>
		</g>
		<g>
			<g>
				<line class="st0" x1="143.7" y1="134.9" x2="165" y2="113.6"/>
				<g>
					<polygon class="st1" points="165.5,118.3 164.6,118.3 164.8,113.9 160.4,114 160.3,113.1 165.7,112.9 					"/>
				</g>
			</g>
		</g>
		<g>
			<g>
				<line class="st0" x1="221.6" y1="100.8" x2="230.7" y2="91.7"/>
				<g>
					<polygon class="st1" points="231.2,96.4 230.3,96.3 230.4,91.9 226,92.1 226,91.2 231.4,91 					"/>
				</g>
			</g>
		</g>
		<g>
			<g>
				<line class="st0" x1="152.7" y1="85" x2="161.8" y2="75.9"/>
				<g>
					<polygon class="st1" points="162.3,80.6 161.4,80.5 161.6,76.1 157.1,76.3 157.1,75.4 162.5,75.2 					"/>
				</g>
			</g>
		</g>
	</g>
	<g>
		<path class="st2" d="M248,232.5H52V113.7c0-2.9,2.3-5.2,5.2-5.2h185.6c2.9,0,5.2,2.3,5.2,5.2V232.5z"/>
		<rect x="60.1" y="114.8" class="st3" width="179.8" height="107.7"/>
		<rect x="60.1" y="114.8" class="st4" width="179.8" height="107.7"/>
		<path class="st5" d="M180.8,227.9c-0.4,1.4-1.7,2.5-3.3,2.5h-55.1c-1.6,0-2.9-1.1-3.3-2.5H33.8v4.2h0v2.6c0,4,3.2,7.2,7.2,7.2h218
			c4,0,7.2-3.2,7.2-7.2v0v-2.6v-4.2H180.8z"/>
	</g>
	<g>
		<path class="st1" d="M207.5,128.9c0,13.6-11,24.6-24.6,24.6c-11,0-57.4,0-67.9,0c-11.5,0-20.8-9.4-20.8-20.8
			c0-11.5,9.3-20.9,20.8-20.9c1.8,0,3.5,0.2,5.2,0.7c-0.1-0.7-0.1-1.3-0.1-1.9c0-15.4,12.5-27.9,28-27.9c13.7,0,25.1,9.8,27.5,22.8
			c2.3-0.7,4.8-1.1,7.4-1.1C196.5,104.3,207.5,115.4,207.5,128.9z"/>
		<path class="st6" d="M207.5,128.9c0,13.6-11,24.6-24.6,24.6c-11,0-57.4,0-67.9,0c-11.5,0-20.8-9.4-20.8-20.8
			c0-11.5,9.3-20.9,20.8-20.9c1.8,0,3.5,0.2,5.2,0.7c-0.1-0.7-0.1-1.3-0.1-1.9c0-15.4,12.5-27.9,28-27.9c13.7,0,25.1,9.8,27.5,22.8
			c2.3-0.7,4.8-1.1,7.4-1.1C196.5,104.3,207.5,115.4,207.5,128.9z"/>
	</g>
	<path class="st7" d="M149,123.7L133,142.5c-1.3,1.6-0.2,4,1.8,4h4.9c1.3,0,2.4,1.1,2.4,2.4v22c0,1.3,1.1,2.4,2.4,2.4H157
		c1.3,0,2.4-1.1,2.4-2.4v-22c0-1.3,1.1-2.4,2.4-2.4h4.9c2,0,3.2-2.4,1.8-4l-15.9-18.8C151.7,122.6,150,122.6,149,123.7z"/>
</g>
</svg>
