<?xml version="1.0" encoding="utf-8"?>
<!-- Generator: Adobe Illustrator 21.0.2, SVG Export Plug-In . SVG Version: 6.00 Build 0)  -->
<svg version="1.1" id="Layer_1" xmlns="http://www.w3.org/2000/svg" xmlns:xlink="http://www.w3.org/1999/xlink" x="0px" y="0px"
	 width="300px" height="300px" viewBox="0 0 300 300" style="enable-background:new 0 0 300 300;" xml:space="preserve">
<style type="text/css">
	.st0{fill:#D1D3D4;}
	.st1{fill:none;stroke:#D1D3D4;stroke-width:1.2825;stroke-miterlimit:10;}
	.st2{fill:#414042;stroke:#282829;stroke-width:2.5914;stroke-miterlimit:10;}
	.st3{fill:#414042;stroke:#282829;stroke-width:2.5651;stroke-miterlimit:10;}
	.st4{fill:none;stroke:#282829;stroke-width:2.5908;stroke-miterlimit:10;}
	.st5{fill:#F1F2F2;stroke:#282829;stroke-width:2.5908;stroke-miterlimit:10;}
	.st6{opacity:0.7;}
	.st7{fill:#EF4136;}
	.st8{fill:#FBB040;}
	.st9{fill:#27AAE1;}
	.st10{fill:#D1EEFC;}
	.st11{fill:#8DC63F;}
</style>
<g>
	<path class="st0" d="M142.3,108.6V97.8l-9.7-1.2c-0.6-2.6-1.4-5-2.6-7.3l6.8-7.3l-7-8.3l-8.3,5.4c-2-1.5-4.2-2.8-6.6-3.9l0.5-10.1
		l-10.7-1.9l-3,9.6c-2.6,0.1-5,0.5-7.4,1.3l-6.2-8.2l-9.4,5.4l4,9.4c-1.8,1.7-3.4,3.6-4.8,5.6L67.8,84l-3.7,10.2l9.1,4.6
		c-0.2,1.3-0.3,2.7-0.3,4.1c0,1.1,0.1,2.2,0.2,3.3l-9.2,4.7l3.7,10.2l9.9-2.3c1.3,2.1,2.9,4.1,4.7,5.8l-4,9.4l9.4,5.4l6-8
		c2.4,0.8,4.9,1.3,7.4,1.4l3,9.7l10.7-1.9l-0.5-9.8c2.4-1,4.7-2.2,6.7-3.7l8.4,5.4l7-8.3l-6.6-7.2c1.2-2.3,2.1-4.7,2.7-7.3
		L142.3,108.6z M103.1,120.4c-9.7,0-17.5-7.8-17.5-17.5s7.8-17.5,17.5-17.5s17.5,7.8,17.5,17.5S112.7,120.4,103.1,120.4z"/>
	<path class="st1" d="M60.3,88.1V85l-2.7-0.3c-0.2-0.7-0.4-1.4-0.7-2.1l1.9-2.1l-2-2.4l-2.3,1.5c-0.6-0.4-1.2-0.8-1.9-1.1l0.1-2.8
		l-3-0.5L48.9,78c-0.7,0-1.4,0.2-2.1,0.4L45.1,76l-2.7,1.5l1.1,2.6c-0.5,0.5-1,1-1.4,1.6l-2.8-0.7L38.3,84l2.6,1.3
		c-0.1,0.4-0.1,0.8-0.1,1.2c0,0.3,0,0.6,0.1,0.9l-2.6,1.3l1.1,2.9L42,91c0.4,0.6,0.8,1.1,1.3,1.6l-1.1,2.7l2.7,1.5l1.7-2.2
		c0.7,0.2,1.4,0.4,2.1,0.4l0.8,2.7l3-0.5l-0.1-2.8c0.7-0.3,1.3-0.6,1.9-1.1l2.4,1.5l2-2.4l-1.9-2c0.3-0.6,0.6-1.3,0.8-2.1L60.3,88.1
		z M49.3,90.7c-2.3,0-4.2-1.9-4.2-4.2s1.9-4.2,4.2-4.2s4.2,1.9,4.2,4.2S51.6,90.7,49.3,90.7z"/>
	<g>
		<path class="st2" d="M248,227.5H52V108.6c0-2.9,2.3-5.2,5.2-5.2h185.6c2.9,0,5.2,2.3,5.2,5.2V227.5z"/>
		<rect x="60.1" y="109.8" class="st3" width="179.8" height="107.7"/>
		<rect x="60.1" y="109.8" class="st4" width="179.8" height="107.7"/>
		<path class="st5" d="M180.8,222.8c-0.4,1.4-1.7,2.5-3.3,2.5h-55.1c-1.6,0-2.9-1.1-3.3-2.5H33.8v4.2h0v2.6c0,4,3.2,7.2,7.2,7.2h218
			c4,0,7.2-3.2,7.2-7.2v0v-2.6v-4.2H180.8z"/>
	</g>
	<g class="st6">
		<rect x="80.4" y="129.4" class="st7" width="34.8" height="2.8"/>
		<rect x="80.4" y="140.8" class="st8" width="50.9" height="2.8"/>
		<rect x="137.4" y="140.8" class="st9" width="11.9" height="2.8"/>
		<rect x="80.4" y="152.1" class="st8" width="25.7" height="2.8"/>
		<rect x="110.6" y="152.1" class="st10" width="110.6" height="2.8"/>
		<rect x="80.4" y="163.5" class="st10" width="101.4" height="2.8"/>
		<rect x="185.4" y="163.5" class="st7" width="16.5" height="2.8"/>
		<rect x="91.9" y="174.8" class="st8" width="16.5" height="2.8"/>
		<rect x="91.9" y="186.2" class="st8" width="16.5" height="2.8"/>
		<rect x="113.3" y="174.8" class="st11" width="95.1" height="2.8"/>
		<rect x="113.3" y="186.2" class="st11" width="49.2" height="2.8"/>
		<rect x="166.7" y="186.2" class="st9" width="48.6" height="2.8"/>
		<rect x="80.4" y="197.5" class="st8" width="27.9" height="2.8"/>
		<rect x="113.3" y="197.5" class="st9" width="64.7" height="2.8"/>
		<rect x="183.1" y="197.5" class="st7" width="9.6" height="2.8"/>
	</g>
</g>
</svg>
