<?xml version="1.0" encoding="utf-8"?>
<!-- Generator: Adobe Illustrator 21.0.2, SVG Export Plug-In . SVG Version: 6.00 Build 0)  -->
<svg version="1.1" id="Layer_1" xmlns="http://www.w3.org/2000/svg" xmlns:xlink="http://www.w3.org/1999/xlink" x="0px" y="0px"
	 width="300px" height="300px" viewBox="0 0 300 300" style="enable-background:new 0 0 300 300;" xml:space="preserve">
<style type="text/css">
	.st0{fill:#D1D3D4;}
	.st1{fill:none;stroke:#D1D3D4;stroke-width:1.3481;stroke-miterlimit:10;}
	.st2{fill:#414042;stroke:#282829;stroke-width:2.7239;stroke-miterlimit:10;}
	.st3{fill:#414042;stroke:#282829;stroke-width:2.6962;stroke-miterlimit:10;}
	.st4{fill:none;stroke:#282829;stroke-width:2.7233;stroke-miterlimit:10;}
	.st5{fill:#F1F2F2;stroke:#282829;stroke-width:2.7233;stroke-miterlimit:10;}
	.st6{opacity:0.7;}
	.st7{fill:#EF4136;}
	.st8{fill:#FBB040;}
	.st9{fill:#27AAE1;}
	.st10{fill:#D1EEFC;}
	.st11{fill:#8DC63F;}
</style>
<g>
	<path class="st0" d="M143.2,104.6V93.2L133,91.9c-0.6-2.7-1.5-5.3-2.7-7.7l7.1-7.7l-7.4-8.8l-8.7,5.6c-2.1-1.6-4.4-3-6.9-4.1
		l0.5-10.6l-11.3-2l-3.1,10.1c-2.7,0.1-5.3,0.6-7.8,1.3l-6.5-8.6l-9.9,5.7l4.2,9.8c-1.9,1.8-3.6,3.7-5,5.9l-10.6-2.4L61,89.4
		l9.5,4.9c-0.2,1.4-0.3,2.8-0.3,4.3c0,1.2,0.1,2.3,0.2,3.5l-9.7,5l3.9,10.7l10.4-2.4c1.4,2.2,3.1,4.3,4.9,6.1l-4.2,9.9l9.9,5.7
		l6.3-8.4c2.5,0.8,5.1,1.3,7.8,1.5l3.1,10.1l11.3-2l-0.5-10.3c2.5-1,4.9-2.3,7.1-3.9l8.8,5.7l7.4-8.8l-7-7.5
		c1.3-2.4,2.3-4.9,2.9-7.6L143.2,104.6z M101.9,117c-10.2,0-18.4-8.2-18.4-18.4s8.2-18.4,18.4-18.4s18.4,8.2,18.4,18.4
		S112.1,117,101.9,117z"/>
	<path class="st1" d="M57,83v-3.2l-2.9-0.4c-0.2-0.8-0.4-1.5-0.8-2.2l2-2.2l-2.1-2.5l-2.5,1.6c-0.6-0.5-1.3-0.8-2-1.1l0.2-3
		l-3.2-0.6L45,72.4c-0.8,0-1.5,0.2-2.2,0.4L41,70.3L38.2,72l1.2,2.8c-0.5,0.5-1,1.1-1.4,1.7l-3-0.7l-1.1,3l2.7,1.4
		c-0.1,0.4-0.1,0.8-0.1,1.2c0,0.3,0,0.7,0.1,1l-2.7,1.4l1.1,3l2.9-0.7c0.4,0.6,0.9,1.2,1.4,1.7L38,90.6l2.8,1.6l1.8-2.4
		c0.7,0.2,1.4,0.4,2.2,0.4l0.9,2.9l3.2-0.6l-0.1-2.9c0.7-0.3,1.4-0.7,2-1.1l2.5,1.6l2.1-2.5l-2-2.1c0.4-0.7,0.6-1.4,0.8-2.2L57,83z
		 M45.4,85.8c-2.4,0-4.4-2-4.4-4.4c0-2.4,2-4.4,4.4-4.4c2.4,0,4.4,2,4.4,4.4C49.8,83.8,47.8,85.8,45.4,85.8z"/>
	<g>
		<path class="st2" d="M254.3,229.5h-206V104.6c0-3,2.4-5.4,5.4-5.4h195.1c3,0,5.4,2.4,5.4,5.4V229.5z"/>
		<rect x="56.8" y="105.8" class="st3" width="189" height="113.2"/>
		<rect x="56.8" y="105.8" class="st4" width="189" height="113.2"/>
		<path class="st5" d="M183.7,224.6c-0.4,1.5-1.8,2.6-3.4,2.6h-57.9c-1.7,0-3-1.1-3.4-2.6H29.1v4.5h0v2.7c0,4.2,3.4,7.6,7.6,7.6
			h229.1c4.2,0,7.6-3.4,7.6-7.6v0v-2.7v-4.5H183.7z"/>
	</g>
	<g class="st6">
		<rect x="78.1" y="126.5" class="st7" width="36.6" height="3"/>
		<rect x="78.1" y="138.4" class="st8" width="53.5" height="3"/>
		<rect x="138" y="138.4" class="st9" width="12.5" height="3"/>
		<rect x="78.1" y="150.3" class="st8" width="27" height="3"/>
		<rect x="109.8" y="150.3" class="st10" width="116.2" height="3"/>
		<rect x="78.1" y="162.3" class="st10" width="106.6" height="3"/>
		<rect x="188.5" y="162.3" class="st7" width="17.3" height="3"/>
		<rect x="90.2" y="174.2" class="st8" width="17.3" height="3"/>
		<rect x="90.2" y="186.1" class="st8" width="17.3" height="3"/>
		<rect x="112.7" y="174.2" class="st11" width="99.9" height="3"/>
		<rect x="112.7" y="186.1" class="st11" width="51.7" height="3"/>
		<rect x="168.9" y="186.1" class="st9" width="51.1" height="3"/>
		<rect x="78.1" y="198.1" class="st8" width="29.4" height="3"/>
		<rect x="112.7" y="198.1" class="st9" width="68" height="3"/>
		<rect x="186.1" y="198.1" class="st7" width="10.1" height="3"/>
	</g>
</g>
</svg>
