<?xml version="1.0" encoding="utf-8"?>
<!-- Generator: Adobe Illustrator 21.0.2, SVG Export Plug-In . SVG Version: 6.00 Build 0)  -->
<svg version="1.1" id="Layer_2" xmlns="http://www.w3.org/2000/svg" xmlns:xlink="http://www.w3.org/1999/xlink" x="0px" y="0px"
	 width="48.7px" height="48.7px" viewBox="0 0 48.7 48.7" style="enable-background:new 0 0 48.7 48.7;" xml:space="preserve">
<style type="text/css">
	.st0{fill:#D1D3D4;}
	.st1{fill:none;stroke:#D1D3D4;stroke-width:0.243;stroke-miterlimit:10;}
	.st2{fill:none;stroke:#D1D3D4;stroke-width:0.243;stroke-linecap:round;stroke-miterlimit:10;stroke-dasharray:1.4448,1.4448;}
	.st3{fill:#414042;stroke:#282829;stroke-width:0.486;stroke-miterlimit:10;}
	.st4{fill:#58595B;stroke:#282829;stroke-width:0.486;stroke-miterlimit:10;}
	.st5{fill:none;stroke:#282829;stroke-width:0.2255;stroke-miterlimit:10;}
	.st6{fill:#E6E7E8;}
</style>
<path class="st0" d="M28.5,12.3V9.6l-2.3-0.3c-0.1-0.6-0.3-1.2-0.6-1.7l1.6-1.7l-1.7-2l-2,1.3c-0.5-0.4-1-0.7-1.6-0.9L22,1.8
	l-2.5-0.4l-0.7,2.3c-0.6,0-1.2,0.1-1.7,0.3l-1.5-1.9l-2.2,1.4l1,2.2c-0.4,0.4-0.8,0.9-1.2,1.4l-2.4-0.5L9.8,8.8l2.2,1.1
	c0,0.3,0,0.6,0,1c0,0.2,0,0.5,0,0.8l-2.2,1.1l0.9,2.4l2.4-0.5c0.3,0.5,0.7,1,1.1,1.4l-1,2.3l2.3,1.3l1.5-1.9
	c0.6,0.2,1.2,0.3,1.8,0.3l0.7,2.3L22,20l-0.1-2.4c0.6-0.2,1.1-0.5,1.6-0.9l2,1.3l1.7-2l-1.6-1.7c0.3-0.5,0.5-1.1,0.7-1.7L28.5,12.3z
	 M19.1,15.8c-2.7,0-5-2.2-5-5s2.2-5,5-5s5,2.2,5,5S21.9,15.8,19.1,15.8z"/>
<path class="st1" d="M13.7,21.5v-0.7l-0.6,0c0-0.1-0.1-0.3-0.1-0.4l0.4-0.4l-0.4-0.5l-0.5,0.3c-0.1-0.1-0.2-0.2-0.4-0.2l0-0.6
	l-0.6-0.1l-0.2,0.5c-0.1,0-0.3,0-0.4,0.1L10.4,19l-0.6,0.3l0.2,0.6C10,20,9.9,20.1,9.8,20.2L9.3,20L9,20.6l0.5,0.3
	c0,0.1,0,0.1,0,0.2c0,0,0,0.1,0,0.2L9,21.6l0.2,0.6l0.6-0.1c0.1,0.1,0.2,0.2,0.3,0.3L9.9,23l0.6,0.3l0.3-0.5c0.1,0,0.3,0.1,0.4,0.1
	l0.2,0.6l0.6-0.1l0-0.6c0.1,0,0.3-0.1,0.4-0.2l0.5,0.3l0.4-0.5L13,22.1c0-0.1,0.1-0.3,0.1-0.4L13.7,21.5z M11.4,22
	c-0.5,0-0.9-0.4-0.9-0.9s0.4-0.9,0.9-0.9s0.9,0.4,0.9,0.9S11.8,22,11.4,22z"/>
<g>
	<circle class="st2" cx="26.1" cy="24.4" r="21.6"/>
</g>
<path class="st3" d="M33,47.6H19.1c-1.7,0-3.1-1.4-3.1-3.1V11.4c0-1.7,1.4-3.1,3.1-3.1h13.9c1.7,0,3.1,1.4,3.1,3.1v33.1
	C36.1,46.2,34.7,47.6,33,47.6z"/>
<rect x="17.3" y="14.2" class="st4" width="17.4" height="25.6"/>
<path class="st0" d="M28.7,11.4h-5.3c-0.2,0-0.4-0.2-0.4-0.4l0,0c0-0.2,0.2-0.4,0.4-0.4h5.3c0.2,0,0.4,0.2,0.4,0.4l0,0
	C29.1,11.3,28.9,11.4,28.7,11.4z"/>
<path class="st0" d="M26.1,41.8c-1,0-1.9,0.8-1.9,1.9c0,1,0.8,1.9,1.9,1.9s1.9-0.8,1.9-1.9C27.9,42.6,27.1,41.8,26.1,41.8z M26.1,45
	c-0.7,0-1.3-0.6-1.3-1.3c0-0.7,0.6-1.3,1.3-1.3s1.3,0.6,1.3,1.3C27.3,44.4,26.8,45,26.1,45z"/>
<g>
	<path class="st0" d="M30.1,28c0,1.2-1,2.2-2.2,2.2c-1,0-5.1,0-6,0c-1,0-1.8-0.8-1.8-1.8c0-1,0.8-1.8,1.8-1.8c0.1,0,0.3,0,0.4,0
		c0,0,0-0.1,0-0.1c0-1.4,1.1-2.5,2.5-2.5c1.2,0,2.2,0.9,2.4,2c0.2,0,0.4-0.1,0.6-0.1C29.1,25.9,30.1,26.8,30.1,28z"/>
	<path class="st5" d="M30.1,28c0,1.2-1,2.2-2.2,2.2c-1,0-5.1,0-6,0c-1,0-1.8-0.8-1.8-1.8c0-1,0.8-1.8,1.8-1.8c0.1,0,0.3,0,0.4,0
		c0,0,0-0.1,0-0.1c0-1.4,1.1-2.5,2.5-2.5c1.2,0,2.2,0.9,2.4,2c0.2,0,0.4-0.1,0.6-0.1C29.1,25.9,30.1,26.8,30.1,28z"/>
	<path class="st6" d="M32.1,26.9c0,0.8-0.6,1.5-1.5,1.5c-0.6,0-3.4,0-4,0c-0.7,0-1.2-0.5-1.2-1.2s0.5-1.2,1.2-1.2c0.1,0,0.2,0,0.3,0
		c0,0,0-0.1,0-0.1c0-0.9,0.7-1.7,1.7-1.7c0.8,0,1.5,0.6,1.6,1.3c0.1,0,0.3,0,0.4,0C31.4,25.4,32.1,26.1,32.1,26.9z"/>
	<path class="st5" d="M32.1,26.9c0,0.8-0.6,1.5-1.5,1.5c-0.6,0-3.4,0-4,0c-0.7,0-1.2-0.5-1.2-1.2s0.5-1.2,1.2-1.2c0.1,0,0.2,0,0.3,0
		c0,0,0-0.1,0-0.1c0-0.9,0.7-1.7,1.7-1.7c0.8,0,1.5,0.6,1.6,1.3c0.1,0,0.3,0,0.4,0C31.4,25.4,32.1,26.1,32.1,26.9z"/>
</g>
</svg>
