<?xml version="1.0" encoding="utf-8"?>
<!-- Generator: Adobe Illustrator 21.0.2, SVG Export Plug-In . SVG Version: 6.00 Build 0)  -->
<svg version="1.1" id="Layer_1" xmlns="http://www.w3.org/2000/svg" xmlns:xlink="http://www.w3.org/1999/xlink" x="0px" y="0px"
	 width="300px" height="300px" viewBox="0 0 300 300" style="enable-background:new 0 0 300 300;" xml:space="preserve">
<style type="text/css">
	.st0{fill:none;stroke:#D1D3D4;stroke-width:1.3481;stroke-linecap:round;stroke-miterlimit:10;stroke-dasharray:8.0168,8.0168;}
	.st1{fill:#D1D3D4;stroke:#282829;stroke-width:0.9738;stroke-miterlimit:10;}
	.st2{fill:#414042;stroke:#282829;stroke-width:2.6962;stroke-miterlimit:10;}
	.st3{fill:#FFFFFF;stroke:#282829;stroke-width:2.6962;stroke-miterlimit:10;}
	.st4{fill:#D1D3D4;stroke:#282829;stroke-width:2.6962;stroke-miterlimit:10;}
	.st5{fill:none;stroke:#282829;stroke-width:2.6962;stroke-miterlimit:10;}
	.st6{opacity:0.7;}
	.st7{fill:#EF4136;}
	.st8{fill:#FBB040;}
	.st9{fill:#27AAE1;}
	.st10{fill:#D1EEFC;}
	.st11{fill:#8DC63F;}
	.st12{fill:#D1D3D4;}
	.st13{fill:#FFFFFF;}
	.st14{fill:#B9D989;}
	.st15{fill:#D4E7B5;}
	.st16{fill:none;stroke:#000000;stroke-width:0.9255;stroke-miterlimit:10;}
	.st17{fill:none;stroke:#282829;stroke-width:0.9496;stroke-miterlimit:10;}
	.st18{fill:#E6E7E8;}
	.st19{fill:#414042;stroke:#282829;stroke-width:0.6102;stroke-miterlimit:10;}
	.st20{fill:#58595B;stroke:#282829;stroke-width:0.6102;stroke-miterlimit:10;}
</style>
<g>
	<g>
		<circle class="st0" cx="143.1" cy="147.5" r="119.9"/>
	</g>
	<path class="st1" d="M297.9,153.9l-0.4-6.1l-5.5-0.3c-0.4-1.4-1-2.8-1.7-4l3.5-4.3l-4.2-4.4l-4.4,3.3c-1.2-0.8-2.5-1.4-3.8-1.9
		l-0.1-5.7l-6.1-0.7l-1.3,5.5c-1.4,0.2-2.8,0.5-4.1,1l-3.8-4.3l-5.1,3.4l2.6,5.1c-1,1-1.8,2.1-2.5,3.3l-5.7-0.9l-1.7,5.9l5.2,2.3
		c-0.1,0.8-0.1,1.5,0,2.3c0,0.6,0.1,1.2,0.2,1.8l-5,3l2.5,5.6l5.4-1.6c0.8,1.1,1.8,2.2,2.8,3.1l-1.9,5.4l5.5,2.7l3.1-4.7
		c1.4,0.3,2.8,0.5,4.2,0.5l2,5.3l5.9-1.5l-0.6-5.5c1.3-0.6,2.5-1.4,3.6-2.3l4.9,2.7l3.6-4.9l-4-3.8c0.6-1.3,1-2.7,1.3-4.2
		L297.9,153.9z M276.4,160.3c-4.5,0.3-8.4-3.1-8.7-7.6c-0.3-4.5,3.1-8.4,7.6-8.7c4.5-0.3,8.4,3.1,8.7,7.6
		C284.3,156.1,280.9,160,276.4,160.3z"/>
	<g>
		<path class="st2" d="M245,228.6H41.1V107.4c0-3,2.4-5.4,5.4-5.4h193.1c3,0,5.4,2.4,5.4,5.4V228.6z"/>
		<path class="st3" d="M41.1,228.6H245v16.2c0,3-2.4,5.4-5.4,5.4H46.5c-3,0-5.4-2.4-5.4-5.4V228.6z"/>
		<polygon class="st4" points="115.6,250.2 170.5,250.2 173.2,265.6 113,265.6 		"/>
		<path class="st3" d="M109.9,265.6h66.3c2.1,0,3.8,1.7,3.8,3.8v1.2h-73.9v-1.2C106.1,267.3,107.8,265.6,109.9,265.6z"/>
		<rect x="49.5" y="108.6" class="st2" width="187.1" height="112"/>
		<rect x="49.5" y="108.6" class="st5" width="187.1" height="112"/>
	</g>
	<g class="st6">
		<rect x="68.6" y="123.6" class="st7" width="36.6" height="3"/>
		<rect x="68.6" y="135.6" class="st8" width="53.5" height="3"/>
		<rect x="128.5" y="135.6" class="st9" width="12.5" height="3"/>
		<rect x="68.6" y="147.5" class="st8" width="27" height="3"/>
		<rect x="100.3" y="147.5" class="st10" width="116.2" height="3"/>
		<rect x="68.6" y="159.4" class="st10" width="106.6" height="3"/>
		<rect x="179" y="159.4" class="st7" width="17.3" height="3"/>
		<rect x="80.7" y="171.4" class="st8" width="17.3" height="3"/>
		<rect x="80.7" y="183.3" class="st8" width="17.3" height="3"/>
		<rect x="103.2" y="171.4" class="st11" width="99.9" height="3"/>
		<rect x="103.2" y="183.3" class="st11" width="51.7" height="3"/>
		<rect x="159.4" y="183.3" class="st9" width="51.1" height="3"/>
		<rect x="68.6" y="195.2" class="st8" width="29.4" height="3"/>
		<rect x="103.2" y="195.2" class="st9" width="68" height="3"/>
		<rect x="176.6" y="195.2" class="st7" width="10.1" height="3"/>
	</g>
	<g>
		<circle class="st12" cx="216.6" cy="53.5" r="27.7"/>
		<g>
			<rect x="192.7" y="33.1" class="st13" width="47.3" height="33.8"/>
			<rect x="192.7" y="49" class="st14" width="47.3" height="17.9"/>
			<rect x="192.7" y="33.1" class="st14" width="47.3" height="3.5"/>
			<rect x="209.9" y="40.5" class="st14" width="12.8" height="2.8"/>
			<rect x="209.9" y="54.5" class="st15" width="12.8" height="1.6"/>
			<rect x="213.2" y="45" class="st11" width="6.2" height="0.7"/>
			<rect x="200.7" y="57.6" class="st15" width="31.6" height="0.7"/>
			<rect x="199.5" y="59.1" class="st15" width="34.1" height="0.7"/>
			<rect x="203.9" y="60.6" class="st15" width="28.5" height="0.7"/>
			<rect x="220.5" y="45" class="st11" width="6.2" height="0.7"/>
			<rect x="227.9" y="45" class="st11" width="6.2" height="0.7"/>
			<rect x="198.8" y="45" class="st11" width="6.2" height="0.7"/>
			<rect x="206.1" y="45" class="st11" width="6.2" height="0.7"/>
			<rect x="192.7" y="33.1" class="st16" width="47.3" height="33.8"/>
			<circle class="st13" cx="194.9" cy="35.1" r="0.5"/>
			<circle class="st13" cx="196.9" cy="35.1" r="0.5"/>
			<circle class="st13" cx="199" cy="35.1" r="0.5"/>
		</g>
	</g>
	<g>
		<path class="st12" d="M91.5,57.5c0,5-4.1,9.1-9.1,9.1c-4.1,0-21.2,0-25.1,0c-4.3,0-7.7-3.5-7.7-7.7c0-4.3,3.4-7.7,7.7-7.7
			c0.7,0,1.3,0.1,1.9,0.2c0-0.2,0-0.5,0-0.7c0-5.7,4.6-10.3,10.4-10.3c5.1,0,9.3,3.6,10.2,8.4c0.9-0.3,1.8-0.4,2.7-0.4
			C87.4,48.4,91.5,52.5,91.5,57.5z"/>
		<path class="st17" d="M91.5,57.5c0,5-4.1,9.1-9.1,9.1c-4.1,0-21.2,0-25.1,0c-4.3,0-7.7-3.5-7.7-7.7c0-4.3,3.4-7.7,7.7-7.7
			c0.7,0,1.3,0.1,1.9,0.2c0-0.2,0-0.5,0-0.7c0-5.7,4.6-10.3,10.4-10.3c5.1,0,9.3,3.6,10.2,8.4c0.9-0.3,1.8-0.4,2.7-0.4
			C87.4,48.4,91.5,52.5,91.5,57.5z"/>
		<path class="st18" d="M99.9,52.7c0,3.4-2.7,6.1-6.1,6.1c-2.7,0-14.1,0-16.7,0c-2.8,0-5.1-2.3-5.1-5.1c0-2.8,2.3-5.1,5.1-5.1
			c0.4,0,0.9,0.1,1.3,0.2c0-0.2,0-0.3,0-0.5c0-3.8,3.1-6.9,6.9-6.9c3.4,0,6.2,2.4,6.8,5.6c0.6-0.2,1.2-0.3,1.8-0.3
			C97.2,46.7,99.9,49.4,99.9,52.7z"/>
		<path class="st17" d="M99.9,52.7c0,3.4-2.7,6.1-6.1,6.1c-2.7,0-14.1,0-16.7,0c-2.8,0-5.1-2.3-5.1-5.1c0-2.8,2.3-5.1,5.1-5.1
			c0.4,0,0.9,0.1,1.3,0.2c0-0.2,0-0.3,0-0.5c0-3.8,3.1-6.9,6.9-6.9c3.4,0,6.2,2.4,6.8,5.6c0.6-0.2,1.2-0.3,1.8-0.3
			C97.2,46.7,99.9,49.4,99.9,52.7z"/>
	</g>
	<g>
		<path class="st19" d="M25.3,168.6H7.8c-2.1,0-3.8-1.7-3.8-3.8v-41.6c0-2.1,1.7-3.8,3.8-3.8h17.5c2.1,0,3.8,1.7,3.8,3.8v41.6
			C29.1,166.9,27.4,168.6,25.3,168.6z"/>
		<rect x="5.6" y="126.8" class="st20" width="21.9" height="32.2"/>
		<path class="st12" d="M19.9,123.3h-6.6c-0.3,0-0.5-0.2-0.5-0.5l0,0c0-0.3,0.2-0.5,0.5-0.5h6.6c0.3,0,0.5,0.2,0.5,0.5l0,0
			C20.4,123,20.2,123.3,19.9,123.3z"/>
		<path class="st12" d="M16.6,161.4c-1.3,0-2.4,1.1-2.4,2.4c0,1.3,1.1,2.4,2.4,2.4s2.4-1.1,2.4-2.4
			C18.9,162.4,17.9,161.4,16.6,161.4z M16.6,165.3c-0.9,0-1.6-0.7-1.6-1.6c0-0.9,0.7-1.6,1.6-1.6c0.9,0,1.6,0.7,1.6,1.6
			C18.2,164.6,17.5,165.3,16.6,165.3z"/>
	</g>
</g>
</svg>
