<?xml version="1.0" encoding="utf-8"?>
<!-- Generator: Adobe Illustrator 21.0.2, SVG Export Plug-In . SVG Version: 6.00 Build 0)  -->
<svg version="1.1" id="Layer_1" xmlns="http://www.w3.org/2000/svg" xmlns:xlink="http://www.w3.org/1999/xlink" x="0px" y="0px"
	 width="300px" height="300px" viewBox="0 0 300 300" style="enable-background:new 0 0 300 300;" xml:space="preserve">
<style type="text/css">
	.st0{fill:none;stroke:#D1D3D4;stroke-width:1.3481;stroke-linecap:round;stroke-miterlimit:10;stroke-dasharray:8.0168,8.0168;}
	.st1{fill:#D1D3D4;}
	.st2{fill:none;stroke:#D1D3D4;stroke-width:2.0222;stroke-miterlimit:10;}
	.st3{fill:none;stroke:#D1D3D4;stroke-width:1.3481;stroke-miterlimit:10;}
	.st4{fill:#414042;stroke:#282829;stroke-width:2.7239;stroke-miterlimit:10;}
	.st5{fill:#8DC63F;}
	.st6{fill:none;stroke:#282829;stroke-width:2.7233;stroke-miterlimit:10;}
	.st7{fill:#F1F2F2;stroke:#282829;stroke-width:2.7233;stroke-miterlimit:10;}
	.st8{fill:#414042;stroke:#282829;stroke-width:2.6962;stroke-miterlimit:10;}
	.st9{opacity:0.7;}
	.st10{fill:#EF4136;}
	.st11{fill:#FBB040;}
	.st12{fill:#27AAE1;}
	.st13{fill:#D1EEFC;}
</style>
<g>
	<g>
		<circle class="st0" cx="138.6" cy="150.2" r="119.9"/>
	</g>
	<path class="st1" d="M267.7,96.5V82.1l-12.9-1.6c-0.7-3.4-1.9-6.7-3.4-9.7l9-9.7L251,49.9L240,57.1c-2.7-2.1-5.6-3.8-8.8-5.1
		l0.7-13.4L217.6,36l-3.9,12.8c-3.4,0.1-6.7,0.7-9.8,1.7l-8.2-10.9l-12.5,7.2l5.3,12.5c-2.4,2.2-4.6,4.7-6.4,7.5l-13.4-3.1l-5,13.6
		l12.1,6.2c-0.2,1.8-0.4,3.6-0.4,5.4c0,1.5,0.1,2.9,0.2,4.4l-12.3,6.3l5,13.6l13.1-3c1.8,2.8,3.9,5.4,6.2,7.7l-5.3,12.6l12.5,7.2
		l8-10.6c3.1,1,6.5,1.7,9.9,1.9l4,12.8l14.3-2.5l-0.7-13.1c3.2-1.3,6.2-3,9-5l11.1,7.2l9.3-11.1l-8.8-9.5c1.6-3,2.9-6.3,3.7-9.7
		L267.7,96.5z M215.5,116.5c-15.2,0-27.6-12.3-27.6-27.6s12.3-27.6,27.6-27.6s27.6,12.3,27.6,27.6S230.7,116.5,215.5,116.5z"/>
	<g>
		<circle class="st2" cx="27.6" cy="104" r="17.7"/>
		<circle class="st3" cx="27.6" cy="104" r="10.1"/>
	</g>
	<g>
		<circle class="st2" cx="277.3" cy="178.3" r="17.7"/>
		<circle class="st3" cx="277.3" cy="178.3" r="10.1"/>
	</g>
	<g>
		<path class="st4" d="M242.9,234.8h-206V109.9c0-3,2.4-5.4,5.4-5.4h195.1c3,0,5.4,2.4,5.4,5.4V234.8z"/>
		<rect x="45.4" y="111.1" class="st5" width="189" height="113.2"/>
		<rect x="45.4" y="111.1" class="st6" width="189" height="113.2"/>
		<path class="st7" d="M172.3,229.9c-0.4,1.5-1.8,2.6-3.4,2.6h-57.9c-1.7,0-3-1.1-3.4-2.6H17.7v4.5h0v2.7c0,4.2,3.4,7.6,7.6,7.6
			h229.1c4.2,0,7.6-3.4,7.6-7.6v0v-2.7v-4.5H172.3z"/>
	</g>
	<g>
		<rect x="71" y="59" class="st8" width="137.8" height="165.3"/>
	</g>
	<g class="st9">
		<rect x="79.2" y="77" class="st10" width="30" height="3"/>
		<rect x="79.2" y="88.9" class="st11" width="43.9" height="3"/>
		<rect x="128.4" y="88.9" class="st12" width="10.2" height="3"/>
		<rect x="79.2" y="100.9" class="st11" width="22.1" height="3"/>
		<rect x="105.2" y="100.9" class="st13" width="95.3" height="3"/>
		<rect x="79.2" y="112.8" class="st13" width="87.4" height="3"/>
		<rect x="169.7" y="112.8" class="st10" width="14.2" height="3"/>
		<rect x="89.1" y="124.7" class="st11" width="14.2" height="3"/>
		<rect x="89.1" y="136.7" class="st11" width="14.2" height="3"/>
		<rect x="107.6" y="124.7" class="st5" width="81.9" height="3"/>
		<rect x="79.2" y="161.8" class="st11" width="43.9" height="3"/>
		<rect x="128.4" y="161.8" class="st12" width="10.2" height="3"/>
		<rect x="79.2" y="173.7" class="st11" width="22.1" height="3"/>
		<rect x="105.2" y="173.7" class="st13" width="95.3" height="3"/>
		<rect x="79.2" y="185.6" class="st13" width="87.4" height="3"/>
		<rect x="169.7" y="185.6" class="st10" width="14.2" height="3"/>
		<rect x="89.1" y="197.6" class="st11" width="14.2" height="3"/>
		<rect x="107.6" y="197.6" class="st5" width="81.9" height="3"/>
		<rect x="107.6" y="136.7" class="st5" width="42.4" height="3"/>
		<rect x="153.6" y="136.7" class="st12" width="41.9" height="3"/>
		<rect x="79.2" y="148.6" class="st11" width="24.1" height="3"/>
		<rect x="107.6" y="148.6" class="st12" width="55.7" height="3"/>
		<rect x="167.7" y="148.6" class="st10" width="8.3" height="3"/>
	</g>
</g>
</svg>
